<?xml version="1.0" standalone="no"?>
<!DOCTYPE svg PUBLIC "-//W3C//DTD SVG 1.1//EN" "http://www.w3.org/Graphics/SVG/1.1/DTD/svg11.dtd" >
<svg xmlns="http://www.w3.org/2000/svg" xmlns:xlink="http://www.w3.org/1999/xlink" version="1.1">
<metadata>
Created by FontForge 20190801 at Mon Jan 24 18:11:26 2022
 By www-data
(c) Mass-Driver 2021
</metadata>
<defs>
<font id="MDPrimerTestBold" horiz-adv-x="554" >
  <font-face 
    font-family="MDPrimerTestBold"
    font-weight="700"
    font-stretch="normal"
    units-per-em="1000"
    panose-1="0 0 0 0 0 0 0 0 0 0"
    ascent="830"
    descent="-170"
    x-height="480"
    cap-height="700"
    bbox="-56 -180 1025 780"
    underline-thickness="50"
    underline-position="-125"
    unicode-range="U+0020-007A"
  />
<missing-glyph horiz-adv-x="794" 
 />
    <glyph glyph-name=".notdef" horiz-adv-x="794" 
 />
    <glyph glyph-name=".null" horiz-adv-x="0" 
 />
    <glyph glyph-name="nonmarkingreturn" horiz-adv-x="333" 
 />
    <glyph glyph-name="space" unicode=" " horiz-adv-x="203" 
 />
    <glyph glyph-name="quotedbl" unicode="&#x22;" horiz-adv-x="387" 
d="M65 424l-14 276h120l-14 -276h-92zM216 700h120l-14 -276h-92z" />
    <glyph glyph-name="quotesingle" unicode="'" horiz-adv-x="239" 
d="M65 424l-14 276h137l-14 -276h-109z" />
    <glyph glyph-name="comma" unicode="," horiz-adv-x="247" 
d="M56 -96q65 8 55 96h-59v142h144v-153q0 -143 -140 -152v67z" />
    <glyph glyph-name="hyphen" unicode="-" horiz-adv-x="419" 
d="M58 228v139h302v-139h-302z" />
    <glyph glyph-name="period" unicode="." horiz-adv-x="246" 
d="M51 0v142h144v-142h-144z" />
    <glyph glyph-name="slash" unicode="/" horiz-adv-x="500" 
d="M13 -170l321 950h147l-321 -950h-147z" />
    <glyph glyph-name="zero" unicode="0" horiz-adv-x="655" 
d="M327 -10q-129 0 -204 76t-75 208v151q0 132 75 208.5t204 76.5t204 -76t75 -209v-151q0 -132 -75 -208t-204 -76zM213 277q0 -133 114 -133q115 0 115 133v146q0 133 -115 133q-114 0 -114 -133v-146z" />
    <glyph glyph-name="one" unicode="1" horiz-adv-x="357" 
d="M126 0v473h-90v128l52 7q43 6 64 26t35 67h104v-701h-165z" />
    <glyph glyph-name="two" unicode="2" horiz-adv-x="602" 
d="M51 0v97l282 276q55 54 55 108q0 39 -24.5 61.5t-64.5 22.5q-53 0 -80 -41t-17 -112l-151 -11q-22 140 48.5 224.5t203.5 84.5q113 0 183 -59.5t70 -159.5q0 -127 -133 -230l-136 -109h276v-152h-512z" />
    <glyph glyph-name="three" unicode="3" horiz-adv-x="610" 
d="M308 -10q-130 0 -204.5 68.5t-66.5 180.5h149q-2 -47 29.5 -77t83.5 -30q44 0 71.5 22t27.5 59q0 36 -26 56.5t-74 20.5h-49v137h53q40 0 63 19.5t23 50.5q0 32 -24 51.5t-64 19.5q-49 0 -78 -29t-30 -78h-146q-4 116 66.5 182.5t196.5 66.5q113 0 179 -51t66 -138
q0 -59 -29.5 -100.5t-83.5 -55.5v-2q61 -15 94.5 -58.5t33.5 -107.5q0 -94 -71.5 -150.5t-189.5 -56.5z" />
    <glyph glyph-name="four" unicode="4" horiz-adv-x="669" 
d="M395 0v96h-362v103l304 501h212v-465h82v-139h-82v-96h-154zM216 235h179v310h-2z" />
    <glyph glyph-name="five" unicode="5" horiz-adv-x="615" 
d="M302 -10q-115 0 -184 55.5t-79 152.5l153 22q6 -41 34.5 -64t75.5 -23q50 0 77.5 26.5t27.5 70.5q0 45 -27.5 73t-78.5 28q-66 0 -103 -49l-132 19l23 399h455v-152h-322l-9 -118q52 33 127 33q106 0 169 -62.5t63 -166.5q0 -112 -72 -178t-198 -66z" />
    <glyph glyph-name="six" unicode="6" horiz-adv-x="635" 
d="M325 -10q-138 0 -208 85.5t-70 268.5q0 366 282 366q106 0 172.5 -50.5t81.5 -143.5l-149 -21q-19 82 -104 82q-120 0 -124 -184l2 -1q56 61 158 61q106 0 167 -61.5t61 -162.5q0 -109 -72.5 -174t-196.5 -65zM218 228q0 -46 28 -73t79 -27t78.5 27t27.5 73t-28 72.5
t-78 26.5t-78.5 -26.5t-28.5 -72.5z" />
    <glyph glyph-name="seven" unicode="7" horiz-adv-x="571" 
d="M114 0q31 68 48 138l36 136q41 169 142 274h-312v152h520v-97q-70 -73 -112.5 -153.5t-70.5 -194.5l-67 -255h-184z" />
    <glyph glyph-name="eight" unicode="8" horiz-adv-x="633" 
d="M316 -10q-127 0 -201 55t-74 150q0 65 35 110.5t97 59.5v2q-50 17 -78 57t-28 97q0 87 65 138t184 51q120 0 184.5 -51t64.5 -138q0 -57 -28 -97t-77 -57v-2q62 -14 97 -59.5t35 -110.5q0 -95 -74 -150t-202 -55zM211 212q0 -38 28 -59.5t77 -21.5t77 21.5t28 59.5
q0 37 -27.5 58.5t-77.5 21.5t-77.5 -21.5t-27.5 -58.5zM222 497q0 -33 24.5 -52.5t69.5 -19.5q46 0 70.5 19.5t24.5 52.5q0 34 -25.5 53.5t-69.5 19.5t-69 -19.5t-25 -53.5z" />
    <glyph glyph-name="nine" unicode="9" horiz-adv-x="635" 
d="M310 710q138 0 208 -85.5t70 -268.5q0 -366 -282 -366q-106 0 -172.5 50.5t-81.5 143.5l149 21q19 -82 104 -82q120 0 124 184l-2 1q-56 -61 -158 -61q-105 0 -166.5 61.5t-61.5 162.5q0 109 72.5 174t196.5 65zM204 472q0 -46 28 -72.5t78 -26.5t78.5 26.5t28.5 72.5
t-28 73t-79 27t-78.5 -27t-27.5 -73z" />
    <glyph glyph-name="colon" unicode=":" horiz-adv-x="246" 
d="M51 338v142h144v-142h-144zM51 0v142h144v-142h-144z" />
    <glyph glyph-name="semicolon" unicode=";" horiz-adv-x="247" 
d="M52 338v142h144v-142h-144zM52 0v142h144v-153q0 -143 -140 -152v67q65 8 55 96h-59z" />
    <glyph glyph-name="A" unicode="A" horiz-adv-x="739" 
d="M2 0l249 700h230l256 -700h-182l-43 126h-301l-43 -126h-166zM259 267h205l-102 299h-2z" />
    <glyph glyph-name="B" unicode="B" horiz-adv-x="726" 
d="M52 0v700h394q115 0 178 -46t63 -133q0 -124 -122 -154v-2q134 -30 134 -169q0 -196 -248 -196h-399zM217 132h221q95 0 95 83q0 82 -95 82h-221v-165zM217 428h224q40 0 61.5 18t21.5 52q0 70 -82 70h-225v-140z" />
    <glyph glyph-name="C" unicode="C" horiz-adv-x="755" 
d="M389 -10q-162 0 -262 99t-100 261t100 261t262 99q134 0 224.5 -71t112.5 -196l-155 -29q-16 67 -63.5 104t-118.5 37q-88 0 -140.5 -56t-52.5 -149t52.5 -149t140.5 -56q76 0 125 42t62 118l156 -24q-16 -135 -109 -213t-234 -78z" />
    <glyph glyph-name="D" unicode="D" horiz-adv-x="731" 
d="M52 0v700h299q165 0 259.5 -94t94.5 -256t-94.5 -256t-259.5 -94h-299zM217 144h126q95 0 144 55t49 151t-49 151t-144 55h-126v-412z" />
    <glyph glyph-name="E" unicode="E" horiz-adv-x="641" 
d="M52 0v700h552v-140h-387v-134h322v-136h-322v-150h390v-140h-555z" />
    <glyph glyph-name="F" unicode="F" horiz-adv-x="579" 
d="M52 0v700h502v-144h-336v-147h281v-142h-281v-267h-166z" />
    <glyph glyph-name="G" unicode="G" horiz-adv-x="751" 
d="M372 -10q-154 0 -249.5 99.5t-95.5 260.5q0 162 99.5 261t260.5 99q117 0 199 -53.5t116 -150.5l-146 -55q-21 50 -65 77t-103 27q-88 0 -140 -56t-52 -149q0 -94 51 -150.5t139 -56.5q66 0 110 31.5t56 88.5h-174v128h327v-391h-97l-21 79h-2q-68 -89 -213 -89z" />
    <glyph glyph-name="H" unicode="H" horiz-adv-x="748" 
d="M52 0v700h165v-270h314v270h164v-700h-164v286h-314v-286h-165z" />
    <glyph glyph-name="I" unicode="I" horiz-adv-x="270" 
d="M52 0v700h165v-700h-165z" />
    <glyph glyph-name="J" unicode="J" horiz-adv-x="626" 
d="M300 -10q-135 0 -206.5 75t-71.5 210v36l149 15v-26q0 -155 122 -155q121 0 121 151v404h165v-405q0 -148 -71.5 -226.5t-207.5 -78.5z" />
    <glyph glyph-name="K" unicode="K" horiz-adv-x="717" 
d="M52 0v700h165v-284l276 284h218l-280 -277l294 -423h-202l-210 305l-96 -94v-211h-165z" />
    <glyph glyph-name="L" unicode="L" horiz-adv-x="576" 
d="M52 0v700h165v-556h336v-144h-501z" />
    <glyph glyph-name="M" unicode="M" horiz-adv-x="940" 
d="M52 0v700h262l159 -507h2l158 507h255v-700h-157v557h-2l-176 -557h-171l-180 558h-2v-558h-148z" />
    <glyph glyph-name="N" unicode="N" horiz-adv-x="754" 
d="M52 0v700h195l301 -474h2v474h151v-700h-194l-302 474h-2v-474h-151z" />
    <glyph glyph-name="O" unicode="O" horiz-adv-x="781" 
d="M391 -10q-162 0 -263 99t-101 261t101 261t263 99t263 -99t101 -261t-101 -261t-263 -99zM196 350q0 -93 53 -149t142 -56q88 0 141.5 56t53.5 149t-53.5 149t-141.5 56q-89 0 -142 -56t-53 -149z" />
    <glyph glyph-name="P" unicode="P" horiz-adv-x="731" 
d="M52 0v700h390q133 0 198 -63t65 -174t-65 -174.5t-198 -63.5h-225v-225h-165zM217 358h205q115 0 115 105q0 104 -115 104h-205v-209z" />
    <glyph glyph-name="Q" unicode="Q" horiz-adv-x="781" 
d="M460 -180q-75 0 -112.5 35t-37.5 97q0 24 7 50q-132 21 -211 114.5t-79 233.5q0 162 101 261t263 99t263 -99t101 -261q0 -145 -85.5 -240t-226.5 -111q-2 -12 -2 -19q0 -46 55 -46q24 0 56 8v-108q-50 -14 -92 -14zM196 350q0 -93 53 -147t142 -54t142 54t53 147
t-53.5 149t-141.5 56q-89 0 -142 -56t-53 -149z" />
    <glyph glyph-name="R" unicode="R" horiz-adv-x="735" 
d="M52 0v700h405q120 0 183 -48.5t63 -142.5q0 -69 -34 -114t-100 -60v-2q39 -14 59.5 -47t30.5 -92l14 -77q13 -70 44 -117h-175q-25 41 -37 110l-21 104q-6 32 -17.5 42.5t-41.5 10.5h-208v-267h-165zM217 400h210q54 0 78.5 20t24.5 65q0 82 -89 82h-224v-167z" />
    <glyph glyph-name="S" unicode="S" horiz-adv-x="673" 
d="M337 -10q-210 0 -320 143l106 88q84 -92 216 -92q63 0 99 19.5t36 55.5q0 27 -21.5 42.5t-72.5 26.5l-127 24q-205 40 -205 196q0 100 74 158.5t202 58.5q195 0 294 -137l-104 -77q-69 83 -190 83q-54 0 -84 -17t-30 -48q0 -46 81 -62l143 -28q106 -20 156 -68.5
t50 -132.5q0 -110 -80.5 -171.5t-222.5 -61.5z" />
    <glyph glyph-name="T" unicode="T" horiz-adv-x="669" 
d="M252 0v556h-230v144h625v-144h-230v-556h-165z" />
    <glyph glyph-name="U" unicode="U" horiz-adv-x="718" 
d="M360 -10q-152 0 -233 87.5t-81 244.5v378h165v-377q0 -83 38.5 -130.5t116.5 -47.5t116.5 47.5t38.5 130.5v377h151v-378q0 -157 -80 -244.5t-232 -87.5z" />
    <glyph glyph-name="V" unicode="V" horiz-adv-x="690" 
d="M235 0l-233 700h176l175 -556h2l169 556h163l-225 -700h-227z" />
    <glyph glyph-name="W" unicode="W" horiz-adv-x="1034" 
d="M164 0l-155 700h168l110 -559h2l128 559h207l131 -559h2l113 559h155l-156 -700h-236l-115 507h-2l-118 -507h-234z" />
    <glyph glyph-name="X" unicode="X" horiz-adv-x="703" 
d="M6 0l246 359l-241 341h198l140 -201h2l133 201h183l-224 -329l261 -371h-199l-159 231h-2l-155 -231h-183z" />
    <glyph glyph-name="Y" unicode="Y" horiz-adv-x="681" 
d="M259 0v252l-265 448h191l162 -284h2l160 284h178l-263 -450v-250h-165z" />
    <glyph glyph-name="Z" unicode="Z" horiz-adv-x="652" 
d="M35 0v98l337 458h-322v144h558v-98l-338 -458h349v-144h-584z" />
    <glyph glyph-name="a" unicode="a" horiz-adv-x="533" 
d="M180 -10q-75 0 -114.5 34.5t-39.5 96.5q0 59 38.5 95t123.5 55l134 29q-9 72 -78 72q-68 0 -108 -71l-105 43q57 146 224 146q201 0 201 -202v-140q0 -19 7.5 -27t25.5 -8q14 0 40 6v-105q-46 -18 -84 -18q-73 0 -103 56q-62 -62 -162 -62zM168 146q0 -45 60 -45
q42 0 68.5 25t26.5 62v37l-99 -28q-56 -16 -56 -51z" />
    <glyph glyph-name="b" unicode="b" 
d="M304 -8q-86 0 -143 52l-10 -44h-107v700h140v-246q53 34 120 34q101 0 166 -68.5t65 -179.5t-65 -179.5t-166 -68.5zM173 240q0 -54 30 -86.5t80 -32.5t79.5 32.5t29.5 86.5t-29.5 86.5t-79.5 32.5t-80 -32.5t-30 -86.5z" />
    <glyph glyph-name="c" unicode="c" horiz-adv-x="520" 
d="M269 -10q-113 0 -181 68.5t-68 181.5t68 181.5t181 68.5q92 0 151.5 -48.5t77.5 -131.5l-123 -38q-10 40 -37 62.5t-67 22.5q-49 0 -78.5 -32t-29.5 -85t29 -85t79 -32q40 0 69 22t40 61l125 -30q-18 -85 -79.5 -135.5t-156.5 -50.5z" />
    <glyph glyph-name="d" unicode="d" 
d="M250 -8q-101 0 -165.5 68.5t-64.5 179.5t64.5 179.5t165.5 68.5q68 0 121 -34v246h140v-700h-108l-10 44q-57 -52 -143 -52zM163 240q0 -54 29 -86.5t79 -32.5t80 32.5t30 86.5t-30 86.5t-80 32.5t-79 -32.5t-29 -86.5z" />
    <glyph glyph-name="e" unicode="e" horiz-adv-x="521" 
d="M263 -10q-110 0 -176.5 68.5t-66.5 181.5t67.5 181.5t176.5 68.5q110 0 177 -71.5t54 -209.5h-336q8 -44 36 -68t72 -24q73 0 103 59l120 -38q-24 -68 -84 -108t-143 -40zM163 296h199q-16 76 -97 76q-80 0 -102 -76z" />
    <glyph glyph-name="f" unicode="f" horiz-adv-x="326" 
d="M73 541q0 80 43.5 124.5t123.5 44.5q44 0 89 -15v-123q-34 8 -58 8q-29 0 -43.5 -12.5t-14.5 -44.5v-43h99v-125h-99v-355h-140v355h-60v125h60v61z" />
    <glyph glyph-name="g" unicode="g" horiz-adv-x="514" 
d="M207 -180q-198 0 -198 102q0 59 67 89q-47 25 -47 81q0 66 69 101q-69 41 -69 126q0 79 55 125.5t148 46.5q94 0 150 -48q31 37 89 37h29v-125h-67q3 -17 3 -36q0 -74 -53.5 -115t-150.5 -41q-35 0 -65 6q-16 -13 -16 -28q0 -26 41 -26h170q67 0 103.5 -30t36.5 -87
q0 -83 -78 -130.5t-217 -47.5zM147 -36q0 -51 101 -51q57 0 87 14t30 39q0 30 -40 30h-167q-11 -14 -11 -32zM166 322q0 -31 19.5 -49.5t52.5 -18.5t53.5 18.5t20.5 49.5q0 32 -20.5 49.5t-53.5 17.5t-52.5 -17.5t-19.5 -49.5z" />
    <glyph glyph-name="h" unicode="h" horiz-adv-x="524" 
d="M44 0v702h140v-266q49 54 132 54q76 0 121.5 -45t45.5 -142v-303h-140v268q0 88 -76 88q-40 0 -61.5 -25t-21.5 -67v-264h-140z" />
    <glyph glyph-name="i" unicode="i" horiz-adv-x="227" 
d="M44 0v480h140v-480h-140zM44 545v155h140v-155h-140z" />
    <glyph glyph-name="j" unicode="j" horiz-adv-x="228" 
d="M24 -180q-36 0 -80 11v114q36 -6 49 -6q26 0 38.5 11.5t12.5 44.5v485h140v-498q0 -79 -42 -120.5t-118 -41.5zM44 545v155h140v-155h-140z" />
    <glyph glyph-name="k" unicode="k" horiz-adv-x="517" 
d="M44 0v700h140v-395l165 175h172l-181 -184l179 -296h-166l-112 195l-57 -58v-137h-140z" />
    <glyph glyph-name="l" unicode="l" horiz-adv-x="227" 
d="M44 0v700h140v-700h-140z" />
    <glyph glyph-name="m" unicode="m" horiz-adv-x="794" 
d="M44 0v480h111l12 -53q52 63 140 63q96 0 137 -67q55 67 146 67q163 0 163 -184v-306h-140v269q0 87 -68 87q-37 0 -57 -25t-20 -67v-264h-140v269q0 87 -68 87q-37 0 -56.5 -24.5t-19.5 -67.5v-264h-140z" />
    <glyph glyph-name="n" unicode="n" horiz-adv-x="524" 
d="M44 0v480h111l12 -54q55 64 145 64q77 0 123.5 -45t46.5 -142v-303h-140v268q0 88 -75 88q-40 0 -61.5 -25t-21.5 -67v-264h-140z" />
    <glyph glyph-name="o" unicode="o" horiz-adv-x="542" 
d="M271 -10q-114 0 -182.5 68.5t-68.5 181.5t68.5 181.5t182.5 68.5t182.5 -68.5t68.5 -181.5t-68.5 -181.5t-182.5 -68.5zM164 240q0 -53 28.5 -85t78.5 -32t78.5 32t28.5 85t-29 85t-78 32t-78 -32t-29 -85z" />
    <glyph glyph-name="p" unicode="p" 
d="M44 -170v650h107l10 -44q57 52 143 52q101 0 166 -68.5t65 -179.5t-65 -179.5t-166 -68.5q-67 0 -120 34v-196h-140zM173 240q0 -54 30 -86.5t80 -32.5t79.5 32.5t29.5 86.5t-29.5 86.5t-79.5 32.5t-80 -32.5t-30 -86.5z" />
    <glyph glyph-name="q" unicode="q" 
d="M371 -170v196q-53 -34 -121 -34q-101 0 -165.5 68.5t-64.5 179.5t64.5 179.5t165.5 68.5q86 0 143 -52l10 44h108v-650h-140zM163 240q0 -54 29 -86.5t79 -32.5t80 32.5t30 86.5t-30 86.5t-80 32.5t-79 -32.5t-29 -86.5z" />
    <glyph glyph-name="r" unicode="r" horiz-adv-x="346" 
d="M44 0v480h106l14 -59q49 64 123 64q19 0 46 -5v-125h-50q-51 0 -75 -25.5t-24 -78.5v-251h-140z" />
    <glyph glyph-name="s" unicode="s" horiz-adv-x="433" 
d="M213 -10q-156 0 -209 118l105 51q34 -56 100 -56q29 0 47.5 10t18.5 29q0 24 -47 38l-81 22q-123 33 -123 137q0 70 50.5 110.5t133.5 40.5q140 0 194 -110l-95 -47q-34 52 -95 52q-54 0 -54 -34q0 -25 46 -37l80 -20q132 -32 132 -144q0 -76 -55 -118t-148 -42z" />
    <glyph glyph-name="t" unicode="t" horiz-adv-x="346" 
d="M229 -10q-156 0 -156 162v203h-60v125h21q32 0 44.5 13t12.5 47v80h122v-140h109v-125h-109v-180q0 -58 58 -58q22 0 57 8v-118q-49 -17 -99 -17z" />
    <glyph glyph-name="u" unicode="u" horiz-adv-x="519" 
d="M209 -10q-77 0 -122 44t-45 140v306h140v-269q0 -86 72 -86q40 0 60.5 24t20.5 67v264h140v-480h-111l-12 53q-52 -63 -143 -63z" />
    <glyph glyph-name="v" unicode="v" horiz-adv-x="485" 
d="M153 0l-158 480h149l100 -334h2l102 334h143l-159 -480h-179z" />
    <glyph glyph-name="w" unicode="w" horiz-adv-x="781" 
d="M138 0l-141 480h144l81 -315h2l95 315h149l97 -315h2l79 315h137l-141 -480h-156l-98 318h-2l-99 -318h-149z" />
    <glyph glyph-name="x" unicode="x" horiz-adv-x="511" 
d="M-7 0l182 242l-175 238h172l88 -125h2l90 125h155l-169 -227l185 -253h-172l-100 139h-2l-101 -139h-155z" />
    <glyph glyph-name="y" unicode="y" horiz-adv-x="485" 
d="M134 -180q-46 0 -92 13v112q32 -7 57 -7q61 0 61 46q0 15 -10 45l-155 451h149l106 -332h2l98 332h141l-166 -500q-28 -87 -75 -123.5t-116 -36.5z" />
    <glyph glyph-name="z" unicode="z" horiz-adv-x="448" 
d="M25 0v96l205 267h-199v117h385v-96l-205 -267h215v-117h-401z" />
    </font>
</defs>
</svg>
